<?xml version="1.0" standalone="no"?>
<svg version="1.0" xmlns="http://www.w3.org/2000/svg" width="4324" height="854" viewBox="0 0 4324 854" preserveAspectRatio="xMidYMid meet">
<g transform="translate(0,854) scale(0.1,-0.1)" fill="#A1A1AA" stroke="none">
<path d="M30467 8533 c-4 -3 -7 -686 -7 -1516 l0 -1510 -82 79 c-261 250 -641 464 -1019 573 -250 71 -463 101 -734 101 -722 0 -1339 -253 -1840 -755 -432 -431 -730 -1019 -844 -1665 -72 -405 -80 -891 -20 -1305 53 -372 149 -682 311 -1007 341 -683 913 -1191 1576 -1402 278 -88 501 -120 832 -119 191 0 262 4 380 22 576 87 1080 336 1423 701 42 45 77 76 77 68 0 -7 7 -139 15 -293 8 -154 15 -304 15 -332 l0 -53 770 0 770 0 0 4210 0 4210 -808 0 c-445 0 -812 -3 -815 -7z m-1117 -3666 c127 -30 214 -62 322 -119 379 -197 666 -582 782 -1048 39 -158 56 -286 63 -480 21 -590 -145 -1087 -476 -1432 -214 -223 -454 -355 -756 -415 -139 -27 -464 -25 -602 5 -436 94 -779 375 -988 807 -84 173 -137 352 -170 565 -22 147 -31 458 -16 616 76 819 544 1399 1226 1519 58 10 140 13 295 11 187 -4 229 -7 320 -29z"/>
<path d="M9385 6115 c-781 -775 -1421 -1412 -1423 -1417 -2 -4 273 -8 612 -8 l616 0 0 -2285 0 -2285 810 0 810 0 0 2285 0 2285 620 0 620 0 0 730 0 730 -620 0 -620 0 -2 687 -3 687 -1420 -1409z"/>
<path d="M1800 5695 l-1805 -1805 1802 0 1803 0 2 -1871 3 -1871 1864 1871 1863 1871 -1863 0 -1864 0 1805 1805 1805 1805 -1805 0 -1805 0 -1805 -1805z"/>
<path d="M35445 6263 c-211 -18 -503 -77 -707 -143 -961 -307 -1675 -1081 -1943 -2105 -165 -630 -150 -1364 42 -1959 333 -1035 1199 -1771 2338 -1985 178 -34 316 -50 547 -63 563 -31 1122 72 1665 305 132 58 370 181 483 252 159 100 440 316 440 338 0 18 -765 1077 -775 1073 -5 -2 -68 -48 -140 -101 -409 -306 -742 -427 -1216 -442 -829 -26 -1474 310 -1786 930 -47 95 -118 293 -129 365 l-7 42 2141 0 2140 0 6 38 c4 20 7 217 8 437 2 431 -4 520 -57 780 -121 597 -430 1152 -855 1533 -186 166 -381 301 -600 411 -310 158 -605 245 -955 286 -118 14 -518 19 -640 8z m544 -1399 c452 -66 848 -387 986 -799 22 -65 55 -236 55 -287 0 -17 -72 -18 -1381 -18 l-1381 0 7 33 c15 70 78 247 120 332 125 257 330 467 574 590 145 73 356 133 536 153 133 15 368 13 484 -4z"/>
<path d="M15655 6254 c-16 -2 -79 -9 -140 -15 -669 -66 -1332 -361 -1800 -800 -549 -515 -856 -1124 -952 -1889 -24 -191 -24 -633 0 -830 75 -618 287 -1124 670 -1600 93 -115 330 -345 456 -443 493 -381 1022 -588 1681 -659 149 -16 594 -16 735 0 584 66 1037 225 1477 518 907 604 1391 1617 1328 2780 -36 665 -227 1222 -583 1704 -501 679 -1234 1097 -2129 1216 -116 15 -663 29 -743 18z m569 -1419 c624 -113 1096 -613 1221 -1295 23 -123 32 -547 16 -687 -46 -391 -197 -723 -446 -981 -213 -222 -457 -358 -758 -424 -88 -19 -132 -22 -322 -22 -190 0 -234 3 -321 22 -261 57 -483 169 -687 345 -182 158 -366 443 -451 698 -114 342 -127 827 -31 1189 108 406 382 771 735 981 157 93 373 165 561 188 113 13 373 6 483 -14z"/>
<path d="M22965 6249 c-569 -69 -1159 -375 -1523 -790 -47 -54 -87 -97 -88 -96 -1 1 -7 144 -13 317 -6 173 -14 348 -17 388 l-6 72 -774 0 -774 0 0 -3010 0 -3010 810 0 810 0 3 1893 2 1892 23 85 c28 105 112 281 180 376 178 250 422 406 745 476 88 19 133 22 332 22 206 1 239 -2 318 -22 380 -96 570 -319 664 -782 16 -78 17 -235 20 -2012 l3 -1928 811 0 810 0 -4 2048 c-4 2239 0 2105 -62 2427 -54 282 -126 499 -236 715 -92 178 -180 301 -314 435 -136 135 -251 218 -420 301 -197 96 -368 149 -621 190 -119 19 -559 27 -679 13z"/>
<path d="M42290 6244 c-565 -86 -1090 -435 -1448 -962 l-70 -103 -6 93 c-3 51 -8 192 -11 313 -3 121 -8 295 -11 388 l-7 167 -778 0 -779 0 0 -3010 0 -3010 815 0 815 0 0 1623 c0 1362 2 1637 15 1717 72 476 391 867 825 1013 154 51 230 62 440 61 163 0 212 -4 299 -23 123 -26 272 -73 358 -111 l61 -28 17 67 c29 116 415 1702 415 1706 0 7 -130 45 -225 66 -219 49 -525 63 -725 33z"/>
</g>
</svg>
